<svg width="31" height="31" viewBox="0 0 31 31" fill="none" xmlns="http://www.w3.org/2000/svg">
<path d="M7.18096 5.94202C6.49929 5.94202 5.94155 6.16511 5.4334 6.64848C4.95003 7.13185 4.70215 7.72676 4.70215 8.42083V23.2937C4.70215 23.9878 4.95003 24.5827 5.4334 25.0661C5.94155 25.5494 6.49929 25.7725 7.18096 25.7725H24.5326C25.1523 25.7725 25.772 25.537 26.2554 25.0413C26.7636 24.5331 27.0115 23.9506 27.0115 23.2937V8.42083C27.0115 7.76394 26.7636 7.18142 26.2554 6.67327C25.772 6.1775 25.1523 5.94202 24.5326 5.94202H7.18096ZM6.56126 7.80113H25.1523V23.9134H6.56126V7.80113ZM9.65977 12.139C9.28795 12.139 9.00289 12.2506 8.7674 12.4861C8.53191 12.7216 8.42037 13.0066 8.42037 13.3785V18.3361C8.42037 18.7079 8.53191 18.993 8.7674 19.2284C9.00289 19.4639 9.28795 19.5755 9.65977 19.5755H13.378C13.7126 19.5755 13.9977 19.4639 14.258 19.2284C14.5058 18.993 14.6174 18.7079 14.6174 18.3361V17.0967H12.7583V17.7164H10.2795V13.9982H12.7583V14.6179H14.6174V13.3785C14.6174 13.0066 14.5058 12.7216 14.258 12.4861C13.9977 12.2506 13.7126 12.139 13.378 12.139H9.65977ZM18.3356 12.139C18.001 12.139 17.7159 12.2506 17.4556 12.4861C17.2078 12.7216 17.0962 13.0066 17.0962 13.3785V18.3361C17.0962 18.7079 17.2078 18.993 17.4556 19.2284C17.7159 19.4639 18.001 19.5755 18.3356 19.5755H22.0538C22.4257 19.5755 22.7107 19.4639 22.9462 19.2284C23.1817 18.993 23.2932 18.7079 23.2932 18.3361V17.0967H21.4341V17.7164H18.9553V13.9982H21.4341V14.6179H23.2932V13.3785C23.2932 13.0066 23.1817 12.7216 22.9462 12.4861C22.7107 12.2506 22.4257 12.139 22.0538 12.139H18.3356Z" fill="#97254A"/>
</svg>
