<svg xmlns="http://www.w3.org/2000/svg" fill="none" viewBox="0 0 24 24" id="Playback-Speed--Streamline-Solar-Broken" height="24" width="24">
  <desc>
    Playback Speed Streamline Icon: https://streamlinehq.com
  </desc>
  <g id="Playback Speed--playback speed-play-button-start-video-audio-player-multimedia-streaming">
    <path id="Vector" stroke="#000000" stroke-linecap="round" d="M12 22c5.5228 0 10 -4.4772 10 -10 0 -5.52285 -4.4772 -10 -10 -10" stroke-width="1.5"></path>
    <path id="Vector_2" stroke="#000000" d="M15.4137 10.941c0.7817 0.4616 0.7817 1.6564 0 2.118l-4.7202 2.7868C9.93371 16.2944 9 15.7105 9 14.7868V9.21316c0 -0.92369 0.93371 -1.50755 1.6935 -1.05897z" stroke-width="1.5"></path>
    <path id="Vector_3" stroke="#000000" stroke-linecap="round" d="M12 22c-0.8107 0 -1.5989 -0.0965 -2.35376 -0.2786M12 2c-0.8107 0 -1.5989 0.09648 -2.35376 0.27859M6.7858 20.5347c-1.32097 -0.8088 -2.43966 -1.9156 -3.2625 -3.227M6.7858 3.46532c-1.32097 0.80876 -2.43966 1.9156 -3.2625 3.22694M2.2738 9.66618C2.09479 10.4149 2 11.1964 2 12s0.09479 1.5851 0.2738 2.3338" stroke-width="1.5"></path>
  </g>
</svg>